<?xml version="1.0" encoding="UTF-8" standalone="no"?>
<!DOCTYPE svg PUBLIC "-//W3C//DTD SVG 1.0//EN" "http://www.w3.org/TR/2001/PR-SVG-20010719/DTD/svg10.dtd">
<svg width="60cm" height="24cm" viewBox="100 53 1193 468" xmlns="http://www.w3.org/2000/svg" xmlns:xlink="http://www.w3.org/1999/xlink">
  <g id="Background">
    <g>
      <rect style="fill: #dbe9fb; fill-opacity: 1; stroke-opacity: 1; stroke-width: 2; stroke: #000000" x="101" y="54.8334" width="322" height="465.167" rx="12" ry="12"/>
      <text font-size="22.5778" style="fill: #000000; fill-opacity: 1; stroke: none;text-anchor:middle;font-family:sans-serif;font-style:normal;font-weight:700" x="262" y="96.7501">
        <tspan x="262" y="96.7501">OCaml</tspan>
        <tspan x="262" y="124.972"></tspan>
        <tspan x="262" y="153.195"></tspan>
        <tspan x="262" y="181.417"></tspan>
        <tspan x="262" y="209.639"></tspan>
        <tspan x="262" y="237.861"></tspan>
        <tspan x="262" y="266.083"></tspan>
        <tspan x="262" y="294.306"></tspan>
        <tspan x="262" y="322.528"></tspan>
        <tspan x="262" y="350.75"></tspan>
        <tspan x="262" y="378.972"></tspan>
        <tspan x="262" y="407.195"></tspan>
        <tspan x="262" y="435.417"></tspan>
        <tspan x="262" y="463.639"></tspan>
        <tspan x="262" y="491.861"></tspan>
      </text>
    </g>
    <g>
      <rect style="fill: #dbe9fb; fill-opacity: 1; stroke-opacity: 1; stroke-width: 2; stroke: #000000" x="527.7" y="55.1" width="322" height="465.167" rx="12" ry="12"/>
      <text font-size="22.5778" style="fill: #000000; fill-opacity: 1; stroke: none;text-anchor:middle;font-family:sans-serif;font-style:normal;font-weight:700" x="688.7" y="97.0167">
        <tspan x="688.7" y="97.0167">ppx</tspan>
        <tspan x="688.7" y="125.239"></tspan>
        <tspan x="688.7" y="153.461"></tspan>
        <tspan x="688.7" y="181.683"></tspan>
        <tspan x="688.7" y="209.906"></tspan>
        <tspan x="688.7" y="238.128"></tspan>
        <tspan x="688.7" y="266.35"></tspan>
        <tspan x="688.7" y="294.572"></tspan>
        <tspan x="688.7" y="322.794"></tspan>
        <tspan x="688.7" y="351.017"></tspan>
        <tspan x="688.7" y="379.239"></tspan>
        <tspan x="688.7" y="407.461"></tspan>
        <tspan x="688.7" y="435.683"></tspan>
        <tspan x="688.7" y="463.906"></tspan>
        <tspan x="688.7" y="492.128"></tspan>
      </text>
    </g>
    <g>
      <rect style="fill: #dbe9fb; fill-opacity: 1; stroke-opacity: 1; stroke-width: 2; stroke: #000000" x="930.7" y="181.1" width="361.3" height="209.9" rx="12" ry="12"/>
      <text font-size="22.5778" style="fill: #000000; fill-opacity: 1; stroke: none;text-anchor:middle;font-family:sans-serif;font-style:normal;font-weight:700" x="1111.35" y="222.383">
        <tspan x="1111.35" y="222.383">ppx_something</tspan>
        <tspan x="1111.35" y="250.606"></tspan>
        <tspan x="1111.35" y="278.828"></tspan>
        <tspan x="1111.35" y="307.05"></tspan>
        <tspan x="1111.35" y="335.272"></tspan>
        <tspan x="1111.35" y="363.494"></tspan>
      </text>
    </g>
    <g>
      <rect style="fill: #c7cfed; fill-opacity: 1; stroke-opacity: 1; stroke-width: 2; stroke: #828282" x="245" y="177.722" width="144" height="219.556" rx="12" ry="12"/>
      <text font-size="22.5778" style="fill: #000000; fill-opacity: 1; stroke: none;text-anchor:middle;font-family:sans-serif;font-style:normal;font-weight:700" x="317" y="209.722">
        <tspan x="317" y="209.722">Astlib</tspan>
        <tspan x="317" y="237.944"></tspan>
        <tspan x="317" y="266.167"></tspan>
        <tspan x="317" y="294.389"></tspan>
        <tspan x="317" y="322.611"></tspan>
        <tspan x="317" y="350.833"></tspan>
        <tspan x="317" y="379.056"></tspan>
      </text>
    </g>
    <g>
      <rect style="fill: #c7cfed; fill-opacity: 1; stroke-opacity: 1; stroke-width: 2; stroke: #828282" x="671.274" y="176.989" width="148.85" height="221.011" rx="12" ry="12"/>
      <text font-size="22.5778" style="fill: #000000; fill-opacity: 1; stroke: none;text-anchor:middle;font-family:sans-serif;font-style:normal;font-weight:700" x="745.699" y="209.717">
        <tspan x="745.699" y="209.717">Versioned</tspan>
        <tspan x="745.699" y="237.939">API</tspan>
        <tspan x="745.699" y="266.161"></tspan>
        <tspan x="745.699" y="294.383"></tspan>
        <tspan x="745.699" y="322.605"></tspan>
        <tspan x="745.699" y="350.828"></tspan>
        <tspan x="745.699" y="379.05"></tspan>
      </text>
    </g>
    <g>
      <line style="fill: none; stroke-opacity: 1; stroke-width: 2; stroke: #000000" x1="527.7" y1="287.684" x2="398.736" y2="287.513"/>
      <polygon style="fill: #000000; fill-opacity: 1; stroke-opacity: 1; stroke-width: 2; stroke: #000000" fill-rule="evenodd" points="391.236,287.503 401.243,282.516 398.736,287.513 401.229,292.516 "/>
    </g>
    <g>
      <line style="fill: none; stroke-opacity: 1; stroke-width: 2; stroke: #000000" x1="930.7" y1="286.05" x2="829.859" y2="287.367"/>
      <polygon style="fill: #000000; fill-opacity: 1; stroke-opacity: 1; stroke-width: 2; stroke: #000000" fill-rule="evenodd" points="822.36,287.465 832.294,282.335 829.859,287.367 832.424,292.334 "/>
    </g>
    <g>
      <line style="fill: none; stroke-opacity: 1; stroke-width: 2; stroke: #000000" x1="389" y1="232.612" x2="515.264" y2="232.972"/>
      <polygon style="fill: #000000; fill-opacity: 1; stroke-opacity: 1; stroke-width: 2; stroke: #000000" fill-rule="evenodd" points="522.764,232.994 512.75,237.965 515.264,232.972 512.778,227.965 "/>
    </g>
    <g>
      <line style="fill: none; stroke-opacity: 1; stroke-width: 2; stroke: #000000" x1="820.124" y1="232.242" x2="920.965" y2="233.457"/>
      <polygon style="fill: #000000; fill-opacity: 1; stroke-opacity: 1; stroke-width: 2; stroke: #000000" fill-rule="evenodd" points="928.464,233.547 918.405,238.426 920.965,233.457 918.525,228.427 "/>
    </g>
  </g>
</svg>
