<?xml version="1.0" encoding="UTF-8" standalone="no"?>
<!-- Created by diasvg.py -->
<svg width="71.802cm" height="20.238cm" viewBox="1.268 8.915 71.802 20.238"
 xmlns="http://www.w3.org/2000/svg"
 xmlns:xlink="http://www.w3.org/1999/xlink">
<!-- Layer: Background -->
<g id="Background">
<!-- Standard - Text -->
<!-- Standard - Box -->
<rect x="14.550" y="16.900" width="9.150" height="5.950" fill="#E7D6D8" stroke="#000000" stroke-width="0.100"  rx="0.000" />
<!-- Standard - Text -->
<text x="15.750" y="20.350"  fill="#000000" text-anchor="start" font-size="1.83" font-family="sans" font-style="normal" font-weight="700">
ocamlc</text>
<!-- Flowchart - Parallelogram -->
<polygon fill="#E7D7B3" stroke="#000000" stroke-width="0.100"  points="3.466,16.950 10.822,16.950 8.675,22.850 1.318,22.850 "/>
<text x="6.070" y="20.262"  fill="#000000" text-anchor="middle" font-size="1.48" font-family="sans" font-style="normal" font-weight="700">
foo.ml</text>
<!-- Standard - Line -->
<line x1="9.748" y1="19.900" x2="14.063" y2="19.878" stroke="#000000" stroke-width="0.100" />
<polygon fill="#000000" stroke="#000000" stroke-width="0.100"  points="14.438,19.876 13.940,20.128 14.063,19.878 13.937,19.628 "/>
<!-- Standard - Line -->
<line x1="40.300" y1="19.925" x2="47.048" y2="19.883" stroke="#000000" stroke-width="0.100" />
<polygon fill="#000000" stroke="#000000" stroke-width="0.100"  points="47.423,19.881 46.925,20.134 47.048,19.883 46.922,19.634 "/>
<!-- Standard - Line -->
<line x1="23.700" y1="19.875" x2="30.713" y2="19.922" stroke="#000000" stroke-width="0.100" />
<polygon fill="#000000" stroke="#000000" stroke-width="0.100"  points="31.088,19.924 30.587,20.171 30.713,19.922 30.590,19.671 "/>
<!-- Flowchart - Box -->
<rect x="31.200" y="16.950" width="9.100" height="5.950" fill="#E7D6D8" stroke="#000000" stroke-width="0.100"  rx="0.000" />
<text x="35.750" y="20.397"  fill="#000000" text-anchor="middle" font-size="1.94" font-family="sans" font-style="normal" font-weight="700">
ppx1</text>
<!-- Flowchart - Box -->
<rect x="47.535" y="16.905" width="9.100" height="5.950" fill="#E7D6D8" stroke="#000000" stroke-width="0.100"  rx="0.000" />
<text x="52.085" y="20.352"  fill="#000000" text-anchor="middle" font-size="1.94" font-family="sans" font-style="normal" font-weight="700">
ppx2</text>
<!-- Standard - Line -->
<line x1="56.635" y1="19.880" x2="63.434" y2="19.880" stroke="#000000" stroke-width="0.100" />
<polygon fill="#000000" stroke="#000000" stroke-width="0.100"  points="63.809,19.880 63.309,20.130 63.434,19.880 63.309,19.630 "/>
<!-- Flowchart - Box -->
<rect x="63.920" y="16.905" width="9.100" height="5.950" fill="#E7D6D8" stroke="#000000" stroke-width="0.100"  rx="0.000" />
<text x="68.470" y="20.352"  fill="#000000" text-anchor="middle" font-size="1.94" font-family="sans" font-style="normal" font-weight="700">
ppx3</text>
<!-- Standard - Arc -->
<path stroke="#000000" fill="none" stroke-width="0.100"  d ="M 68.470,22.855 A 61.017,61.017 0 0,1 19.571,23.045 "/>
<polygon fill="#000000" stroke="#000000" stroke-width="0.100"  points="19.227,22.895 19.786,22.869 19.570,23.047 19.583,23.326 "/>
<!-- Standard - Arc -->
<path stroke="#000000" fill="none" stroke-width="0.100"  d ="M 52.085,16.905 A 9.190,9.190 0 0,0 35.983,16.523 "/>
<polygon fill="#000000" stroke="#000000" stroke-width="0.100"  points="35.801,16.850 35.806,16.292 35.972,16.517 36.251,16.519 "/>
<!-- Standard - Arc -->
<path stroke="#000000" fill="none" stroke-width="0.100"  d ="M 35.750,16.950 A 9.190,9.190 0 0,1 51.850,16.479 "/>
<polygon fill="#000000" stroke="#000000" stroke-width="0.100"  points="52.033,16.806 51.581,16.477 51.861,16.473 52.025,16.247 "/>
<!-- Standard - Text -->
<text x="41.650" y="10.750"  fill="#000000" text-anchor="start" font-size="2.47" font-family="sans" font-style="normal" font-weight="700">
???</text>
</g>
</svg>