<?xml version="1.0" encoding="UTF-8" standalone="no"?>
<!-- Created by diasvg.py -->
<svg width="55.082cm" height="21.850cm" viewBox="4.018 7.950 55.082 21.850"
 xmlns="http://www.w3.org/2000/svg"
 xmlns:xlink="http://www.w3.org/1999/xlink">
<!-- Layer: Background -->
<g id="Background">
<!-- Standard - Text -->
<!-- Standard - Box -->
<rect x="16.450" y="8.000" width="16.550" height="21.750" fill="#E7D6D8" stroke="#000000" stroke-width="0.100"  rx="0.000" />
<!-- Standard - Text -->
<text x="21.000" y="10.700"  fill="#000000" text-anchor="start" font-size="1.83" font-family="sans" font-style="normal" font-weight="700">
ocamlc</text>
<!-- Flowchart - Parallelogram -->
<polygon fill="#E7D7B3" stroke="#000000" stroke-width="0.100"  points="6.216,13.300 13.572,13.300 11.425,19.200 4.068,19.200 "/>
<text x="8.820" y="16.612"  fill="#000000" text-anchor="middle" font-size="1.48" font-family="sans" font-style="normal" font-weight="700">
foo.ml</text>
<!-- Standard - Line -->
<line x1="12.498" y1="16.250" x2="17.897" y2="16.273" stroke="#000000" stroke-width="0.100" />
<polygon fill="#000000" stroke="#000000" stroke-width="0.100"  points="18.272,16.275 17.771,16.522 17.897,16.273 17.773,16.022 "/>
<!-- Flowchart - Box -->
<rect x="18.384" y="13.450" width="11.832" height="5.650" fill="#DBE9FB" stroke="#000000" stroke-width="0.100"  rx="0.800" />
<text x="24.300" y="16.637"  fill="#000000" text-anchor="middle" font-size="1.48" font-family="sans" font-style="normal" font-weight="700">
AST</text>
<!-- Standard - Box -->
<rect x="42.750" y="8.005" width="16.300" height="21.745" fill="#E7D6D8" stroke="#000000" stroke-width="0.100"  rx="0.000" />
<!-- Standard - Text -->
<text x="48.500" y="10.800"  fill="#000000" text-anchor="start" font-size="1.83" font-family="sans" font-style="normal" font-weight="700">
ppx</text>
<!-- Standard - Line -->
<line x1="30.216" y1="16.275" x2="44.698" y2="16.231" stroke="#000000" stroke-width="0.100" />
<polygon fill="#000000" stroke="#000000" stroke-width="0.100"  points="45.073,16.230 44.574,16.482 44.698,16.231 44.572,15.982 "/>
<!-- Flowchart - Box -->
<rect x="18.285" y="22.105" width="12.230" height="5.650" fill="#DBE9FB" stroke="#000000" stroke-width="0.100"  rx="0.800" />
<text x="24.400" y="25.292"  fill="#000000" text-anchor="middle" font-size="1.48" font-family="sans" font-style="normal" font-weight="700">
AST</text>
<!-- Standard - Line -->
<line x1="45.036" y1="24.930" x2="31.002" y2="24.930" stroke="#000000" stroke-width="0.100" />
<polygon fill="#000000" stroke="#000000" stroke-width="0.100"  points="30.627,24.930 31.127,24.680 31.002,24.930 31.127,25.180 "/>
<!-- Standard - Text -->
<text x="34.550" y="15.250"  fill="#000000" text-anchor="start" font-size="1.48" font-family="sans" font-style="normal" font-weight="700">
Marshall</text>
<!-- Standard - Text -->
<text x="34.535" y="23.847"  fill="#000000" text-anchor="start" font-size="1.48" font-family="sans" font-style="normal" font-weight="700">
Marshall</text>
<!-- Group -->
<!-- Standard - Line -->
<line x1="51.101" y1="19.055" x2="51.143" y2="21.618" stroke="#000000" stroke-width="0.100" />
<polygon fill="#000000" stroke="#000000" stroke-width="0.100"  points="51.149,21.993 50.891,21.497 51.143,21.618 51.391,21.489 "/>
<!-- Flowchart - Box -->
<rect x="45.185" y="13.405" width="11.832" height="5.650" fill="#DBE9FB" stroke="#000000" stroke-width="0.100"  rx="0.800" />
<text x="51.101" y="16.592"  fill="#000000" text-anchor="middle" font-size="1.48" font-family="sans" font-style="normal" font-weight="700">
AST</text>
<!-- Flowchart - Box -->
<rect x="45.036" y="22.105" width="12.230" height="5.650" fill="#DBE9FB" stroke="#000000" stroke-width="0.100"  rx="0.800" />
<text x="51.151" y="25.292"  fill="#000000" text-anchor="middle" font-size="1.48" font-family="sans" font-style="normal" font-weight="700">
AST</text>
</g>
</svg>