<?xml version="1.0" encoding="UTF-8" standalone="no"?>
<!-- Created by diasvg.py -->
<svg width="50.800cm" height="32.800cm" viewBox="2.400 -6.987 50.800 32.800"
 xmlns="http://www.w3.org/2000/svg"
 xmlns:xlink="http://www.w3.org/1999/xlink">
<!-- Layer: Background -->
<g id="Background">
<!-- Standard - Box -->
<rect x="2.450" y="7.163" width="9.400" height="6.550" fill="#E7D6D8" stroke="#000000" stroke-width="0.100"  rx="0.000" />
<!-- Standard - Text -->
<text x="7.150" y="10.883"  fill="#000000" text-anchor="middle" font-size="2.12" font-family="sans" font-style="normal" font-weight="700">
ocamlc</text>
<!-- Standard - Box -->
<rect x="18.050" y="-6.937" width="35.100" height="32.700" fill="#E7D6D8" stroke="#000000" stroke-width="0.100"  rx="0.000" />
<!-- Standard - Box -->
<rect x="20.650" y="-1.987" width="9.350" height="6.450" fill="#DBE9FB" stroke="#000000" stroke-width="0.100"  stroke-linejoin="round" rx="1.000" />
<!-- Standard - Text -->
<text x="25.325" y="0.858"  fill="#000000" text-anchor="middle" font-size="1.85" font-family="sans" font-style="normal" font-weight="700">
AST</text>
<text x="25.325" y="2.708"  fill="#000000" text-anchor="middle" font-size="1.85" font-family="sans" font-style="normal" font-weight="700">
(4.07)</text>
<!-- Standard - Box -->
<rect x="34.485" y="-1.932" width="9.350" height="6.450" fill="#DBE9FB" stroke="#000000" stroke-width="0.100"  stroke-linejoin="round" rx="1.000" />
<!-- Standard - Text -->
<text x="39.160" y="0.913"  fill="#000000" text-anchor="middle" font-size="1.85" font-family="sans" font-style="normal" font-weight="700">
AST</text>
<text x="39.160" y="2.763"  fill="#000000" text-anchor="middle" font-size="1.85" font-family="sans" font-style="normal" font-weight="700">
(4.08)</text>
<!-- Standard - Box -->
<rect x="20.770" y="16.623" width="9.350" height="6.450" fill="#DBE9FB" stroke="#000000" stroke-width="0.100"  stroke-linejoin="round" rx="1.000" />
<!-- Standard - Text -->
<text x="25.445" y="19.468"  fill="#000000" text-anchor="middle" font-size="1.85" font-family="sans" font-style="normal" font-weight="700">
AST</text>
<text x="25.445" y="21.318"  fill="#000000" text-anchor="middle" font-size="1.85" font-family="sans" font-style="normal" font-weight="700">
(4.07)</text>
<!-- Standard - Box -->
<rect x="34.505" y="16.578" width="9.350" height="6.450" fill="#DBE9FB" stroke="#000000" stroke-width="0.100"  stroke-linejoin="round" rx="1.000" />
<!-- Standard - Text -->
<text x="39.180" y="19.423"  fill="#000000" text-anchor="middle" font-size="1.85" font-family="sans" font-style="normal" font-weight="700">
AST</text>
<text x="39.180" y="21.273"  fill="#000000" text-anchor="middle" font-size="1.85" font-family="sans" font-style="normal" font-weight="700">
(4.08)</text>
<!-- Standard - BezierLine -->
<path stroke="#000000" fill="none" stroke-width="0.100"  d="M 11.850,8.800 C 14.938,8.800 17.562,1.238 20.163,1.238 "/>
<!-- Standard - Polygon -->
<polygon fill="#000000" stroke="#000000" stroke-width="0.100"  points="20.538,1.238 20.038,1.488 20.163,1.238 20.038,0.988 "/>
<!-- Standard - BezierLine -->
<path stroke="#000000" fill="none" stroke-width="0.100"  d="M 20.770,19.848 C 17.643,19.848 14.977,12.075 12.337,12.075 "/>
<!-- Standard - Polygon -->
<polygon fill="#000000" stroke="#000000" stroke-width="0.100"  points="11.962,12.075 12.462,11.825 12.337,12.075 12.462,12.325 "/>
<!-- Standard - Line -->
<line x1="30.000" y1="1.238" x2="33.998" y2="1.287" stroke="#000000" stroke-width="0.100" />
<!-- Standard - Polygon -->
<polygon fill="#000000" stroke="#000000" stroke-width="0.100"  points="34.373,1.291 33.870,1.535 33.998,1.287 33.876,1.035 "/>
<!-- Standard - Line -->
<line x1="34.505" y1="19.803" x2="30.607" y2="19.843" stroke="#000000" stroke-width="0.100" />
<!-- Standard - Polygon -->
<polygon fill="#000000" stroke="#000000" stroke-width="0.100"  points="30.232,19.846 30.729,19.591 30.607,19.843 30.734,20.091 "/>
<!-- Standard - Box -->
<rect x="41.835" y="7.268" width="9.350" height="6.450" fill="#C7CFED" stroke="#000000" stroke-width="0.100"  stroke-linejoin="round" rx="1.000" />
<!-- Standard - Text -->
<text x="46.510" y="10.854"  fill="#000000" text-anchor="middle" font-size="1.85" font-family="sans" font-style="normal" font-weight="700">
ppx</text>
<!-- Standard - BezierLine -->
<path stroke="#000000" fill="none" stroke-width="0.100"  d="M 43.835,1.293 C 45.289,2.786 46.212,4.714 46.464,6.783 "/>
<!-- Standard - Polygon -->
<polygon fill="#000000" stroke="#000000" stroke-width="0.100"  points="46.502,7.156 46.218,6.675 46.476,6.782 46.717,6.640 "/>
<!-- Standard - BezierLine -->
<path stroke="#000000" fill="none" stroke-width="0.100"  d="M 46.510,13.718 C 46.296,15.808 45.483,17.791 44.168,19.430 "/>
<!-- Standard - Polygon -->
<polygon fill="#000000" stroke="#000000" stroke-width="0.100"  points="43.929,19.719 44.071,19.178 44.176,19.437 44.447,19.508 "/>
<!-- Standard - Text -->
<text x="29.700" y="-3.937"  fill="#000000" text-anchor="start" font-size="2.29" font-family="sans" font-style="normal" font-weight="700">
OMP Driver</text>
</g>
</svg>