<?xml version="1.0" encoding="UTF-8" standalone="no"?>
<!-- Created by diasvg.py -->
<svg width="65.750cm" height="27.550cm" viewBox="2.400 -6.482 65.750 27.550"
 xmlns="http://www.w3.org/2000/svg"
 xmlns:xlink="http://www.w3.org/1999/xlink">
<!-- Layer: Background -->
<g id="Background">
<!-- Standard - Line -->
<line x1="4.985" y1="4.867" x2="66.035" y2="4.867" stroke="#8B9EAB" stroke-width="0.300" />
<!-- Standard - Line -->
<line x1="5.070" y1="11.922" x2="66.120" y2="11.922" stroke="#8B9EAB" stroke-width="0.300" />
<!-- Standard - Line -->
<line x1="4.985" y1="18.918" x2="66.035" y2="18.918" stroke="#8B9EAB" stroke-width="0.300" />
<!-- Standard - Line -->
<line x1="2.450" y1="9.062" x2="7.263" y2="9.062" stroke="#000000" stroke-width="0.100" />
<polygon fill="#000000" stroke="#000000" stroke-width="0.100"  points="7.638,9.062 7.138,9.312 7.263,9.062 7.138,8.812 "/>
<!-- Standard - Line -->
<line x1="5.000" y1="-2.087" x2="66.050" y2="-2.087" stroke="#8B9EAB" stroke-width="0.300" />
<!-- Flowchart - Box -->
<rect x="12.100" y="-6.433" width="8.885" height="6.450" fill="#C7CFED" stroke="#000000" stroke-width="0.100"  rx="1.000" />
<text x="16.543" y="-2.846"  fill="#000000" text-anchor="middle" font-size="1.48" font-family="sans" font-style="normal" font-weight="700">
ppx1</text>
<!-- Standard - Text -->
<text x="3.200" y="-2.938"  fill="#8B9EAB" text-anchor="start" font-size="1.83" font-family="sans" font-style="normal" font-weight="700">
4.05</text>
<!-- Flowchart - Box -->
<rect x="25.035" y="0.518" width="8.885" height="6.450" fill="#C7CFED" stroke="#000000" stroke-width="0.100"  rx="1.000" />
<text x="29.477" y="4.104"  fill="#000000" text-anchor="middle" font-size="1.48" font-family="sans" font-style="normal" font-weight="700">
ppx2</text>
<!-- Flowchart - Box -->
<rect x="38.085" y="7.567" width="8.885" height="6.450" fill="#C7CFED" stroke="#000000" stroke-width="0.100"  rx="1.000" />
<text x="42.528" y="11.154"  fill="#000000" text-anchor="middle" font-size="1.48" font-family="sans" font-style="normal" font-weight="700">
ppx3</text>
<!-- Standard - Text -->
<text x="3.185" y="4.080"  fill="#8B9EAB" text-anchor="start" font-size="1.83" font-family="sans" font-style="normal" font-weight="700">
4.06</text>
<!-- Standard - Text -->
<text x="3.270" y="11.085"  fill="#8B9EAB" text-anchor="start" font-size="1.83" font-family="sans" font-style="normal" font-weight="700">
4.07</text>
<!-- Standard - Text -->
<text x="3.205" y="18.090"  fill="#8B9EAB" text-anchor="start" font-size="1.83" font-family="sans" font-style="normal" font-weight="700">
4.08</text>
<!-- Flowchart - Box -->
<rect x="51.135" y="14.567" width="8.885" height="6.450" fill="#C7CFED" stroke="#000000" stroke-width="0.100"  rx="1.000" />
<text x="55.578" y="18.154"  fill="#000000" text-anchor="middle" font-size="1.48" font-family="sans" font-style="normal" font-weight="700">
ppx4</text>
<!-- Standard - BezierLine -->
<path stroke="#000000" fill="none" stroke-width="0.100"  d="M 7.650,9.062 C 11.850,9.062 8.500,-3.188 11.613,-3.205 "/>
<polygon fill="#000000" stroke="#000000" stroke-width="0.100"  points="11.988,-3.207 11.490,-2.954 11.613,-3.205 11.487,-3.454 "/>
<!-- Standard - BezierLine -->
<path stroke="#000000" fill="none" stroke-width="0.100"  d="M 20.985,-3.208 C 24.350,-3.188 21.600,3.763 24.548,3.745 "/>
<polygon fill="#000000" stroke="#000000" stroke-width="0.100"  points="24.923,3.743 24.425,3.996 24.548,3.745 24.422,3.496 "/>
<!-- Standard - Line -->
<line x1="64.000" y1="9.062" x2="67.613" y2="9.062" stroke="#000000" stroke-width="0.100" />
<polygon fill="#000000" stroke="#000000" stroke-width="0.100"  points="67.988,9.062 67.488,9.312 67.613,9.062 67.488,8.812 "/>
<!-- Standard - BezierLine -->
<path stroke="#000000" fill="none" stroke-width="0.100"  d="M 33.920,3.743 C 37.285,3.763 34.650,10.812 37.598,10.795 "/>
<polygon fill="#000000" stroke="#000000" stroke-width="0.100"  points="37.973,10.793 37.475,11.046 37.598,10.795 37.472,10.546 "/>
<!-- Standard - BezierLine -->
<path stroke="#000000" fill="none" stroke-width="0.100"  d="M 46.970,10.793 C 50.335,10.812 47.700,17.812 50.648,17.795 "/>
<polygon fill="#000000" stroke="#000000" stroke-width="0.100"  points="51.023,17.793 50.525,18.046 50.648,17.795 50.522,17.546 "/>
<!-- Standard - BezierLine -->
<path stroke="#000000" fill="none" stroke-width="0.100"  d="M 60.020,17.793 C 63.400,17.812 60.000,9.012 63.563,9.012 "/>
<polygon fill="#000000" stroke="#000000" stroke-width="0.100"  points="63.938,9.012 63.438,9.262 63.563,9.012 63.438,8.762 "/>
<!-- Standard - Text -->
<text x="7.985" y="11.030"  fill="#8B9EAB" text-anchor="start" font-size="1.41" font-family="sans" font-style="normal" font-weight="700">
(compiler version)</text>
<!-- Standard - Text -->
<text x="10.100" y="3.262"  fill="#FF0000" text-anchor="middle" font-size="3.53" font-family="sans" font-style="normal" font-weight="700">
X</text>
</g>
</svg>